# xmcd
#
# Track frame offsets: 
#        150
#        15183
#        30947
#        45063
#        60912
#        77349
#        95213
#        114931
#        130805
#        149092
#        164213
#        182679
#
# Disc length: 2632 seconds
#
# Revision: 3
# Processed by: cddbd v1.5.2PL0 Copyright (c) Steve Scherf et al.
# Submitted via: ExactAudioCopy v0.99pb4
#
DISCID=8b0a460c
DTITLE=Westlife - Turn Around
DYEAR=2003
DGENRE=Pop
TTITLE0=Mandy
TTITLE1=Hey Whatever
TTITLE2=Heal
TTITLE3=Obvious
TTITLE4=When A Woman Loves A Man
TTITLE5=On My Shoulder
TTITLE6=Turn Around
TTITLE7=I Dit It For You
TTITLE8=Thank You
TTITLE9=To Be With You
TTITLE10=Home
TTITLE11=What Do They Know?
EXTD=Turn Around - Nam-gi Song
EXTT0=
EXTT1=
EXTT2=
EXTT3=
EXTT4=
EXTT5=
EXTT6=
EXTT7=
EXTT8=
EXTT9=
EXTT10=
EXTT11=
PLAYORDER=
